<svg xmlns="http://www.w3.org/2000/svg" viewBox="0 0 1400 800" role="img" aria-labelledby="t d"><title id="t">Moon main quest flow</title><desc id="d">Moon quest route from Samantha Says through the MPD and rocket finale.</desc><rect width="1400" height="800" fill="#090909"/><text x="700" y="55" fill="#fff" text-anchor="middle" font-family="Arial" font-size="38" font-weight="700">RICHTOFEN'S GRAND SCHEME · ROUTE</text><g font-family="Arial" text-anchor="middle"><g fill="#161616" stroke="#d96b3c" stroke-width="4"><rect x="55" y="110" width="250" height="115" rx="20"/><rect x="360" y="110" width="250" height="115" rx="20"/><rect x="665" y="110" width="250" height="115" rx="20"/><rect x="970" y="110" width="250" height="115" rx="20"/><rect x="970" y="315" width="250" height="115" rx="20"/><rect x="665" y="315" width="250" height="115" rx="20"/><rect x="360" y="315" width="250" height="115" rx="20"/><rect x="55" y="315" width="250" height="115" rx="20"/><rect x="360" y="530" width="250" height="115" rx="20"/><rect x="665" y="530" width="250" height="115" rx="20"/></g><g fill="#fff" font-size="21"><text x="180" y="150" font-weight="700">1 · SAMANTHA SAYS</text><text x="180" y="185">Receiving Bay</text><text x="485" y="150" font-weight="700">2 · LAB HACK</text><text x="485" y="185">4 green terminals</text><text x="790" y="150" font-weight="700">3 · PI BREACH</text><text x="790" y="185">Tunnel 6</text><text x="1095" y="150" font-weight="700">4 · VRIL SPHERE</text><text x="1095" y="185">Wave Gun at dish</text><text x="1095" y="355" font-weight="700">5 · OPEN MPD</text><text x="1095" y="390">25 souls + lever</text><text x="790" y="355" font-weight="700">6 · AREA 51 PLATES</text><text x="790" y="390">Gersh → QED</text><text x="485" y="355" font-weight="700">7 · CHARGE DEVICE</text><text x="485" y="390">Cable + computer</text><text x="180" y="355" font-weight="700">8 · SOUL SWAP</text><text x="180" y="390">4 × 25 souls</text><text x="485" y="570" font-weight="700">9 · ARM ROCKETS</text><text x="485" y="605">QED + Samantha Says</text><text x="790" y="570" font-weight="700">10 · FINAL GERSH</text><text x="790" y="605">Destroy Earth</text></g><path d="M305 167h55M610 167h55M915 167h55M1095 225v90M970 372h-55M665 372h-55M360 372h-55M180 430c0 100 140 157 180 157M610 587h55" stroke="#f5b078" stroke-width="7" fill="none"/><text x="700" y="735" fill="#aaa" font-size="24">BO1 full ending: qualified Richtofen profile · Call of the Dead + Shangri-La completed</text></g></svg>